# xmcd CD database file
#
# Track frame offsets:
#	150
#	14195
#	27319
#	41448
#	57489
#	74404
#	91308
#	107969
#	125867
#	139876
#	153468
#
# Disc length: 2234 seconds
#
# Revision: 0
# Processed by: cddbd v1.5.2PL0 Copyright (c) Steve Scherf et al.
# Submitted via: CDex 1.70beta2
#
DISCID=a608b80b
DTITLE=Shea Fisher - Shea
DYEAR=2009
DGENRE=Country
TTITLE0=Suitcase
TTITLE1=Easy Come, Easy Go
TTITLE2=Getaway Heart
TTITLE3=Children
TTITLE4=What He Did To Me
TTITLE5=Don't Chase Me
TTITLE6=A Little Bit Of Love
TTITLE7=Bein' With My Baby
TTITLE8=Another Day In The Sun
TTITLE9=Make You Want To
TTITLE10=You Will
EXTD=YEAR: 2009
EXTT0=
EXTT1=
EXTT2=
EXTT3=
EXTT4=
EXTT5=
EXTT6=
EXTT7=
EXTT8=
EXTT9=
EXTT10=
PLAYORDER=
